<svg id="Camada_1" data-name="Camada 1" xmlns="http://www.w3.org/2000/svg" viewBox="0 0 119.06 119.06"><defs><style>.cls-1{font-size:10.79px;fill:#8d8d91;font-family:TrebuchetMS, Trebuchet MS;letter-spacing:0.01em;}.cls-2{fill:none;stroke:#8d8d91;stroke-linecap:round;stroke-linejoin:round;stroke-width:0.75px;}</style></defs><title>icone_app</title><text class="cls-1" transform="translate(63.54 91.83) scale(0.98 1)">C</text><line class="cls-2" x1="21.01" y1="96.07" x2="100.76" y2="68.34"/><line class="cls-2" x1="22.33" y1="98.55" x2="19.7" y2="93.58"/><line class="cls-2" x1="102.07" y1="70.82" x2="99.45" y2="65.86"/><text class="cls-1" transform="translate(109 39.25) scale(0.98 1)">D</text><line class="cls-2" x1="105.72" y1="16.07" x2="105.68" y2="56.24"/><line class="cls-2" x1="102.92" y1="16.07" x2="108.53" y2="16.08"/><line class="cls-2" x1="102.87" y1="56.24" x2="108.48" y2="56.25"/><path class="cls-2" d="M86.44,20.89c14.29-3,21.11,35.35,3.73,42.63"/><line class="cls-2" x1="90.53" y1="63.53" x2="19.7" y2="87.73"/><line class="cls-2" x1="19.7" y1="38.19" x2="86.44" y2="20.89"/><path class="cls-2" d="M34.43,63.34c0,13.75-6.6,24.39-14.73,24.39S5,77.09,5,63.34s6.6-24.89,14.73-24.89S34.43,49.59,34.43,63.34Z"/></svg>