<svg id="Camada_1" data-name="Camada 1" xmlns="http://www.w3.org/2000/svg" viewBox="0 0 119.06 119.06"><defs><style>.cls-1{fill:#daaa39;}.cls-2{fill:#fff;}</style></defs><title>icone_app</title><path class="cls-1" d="M104.56,59.53a45,45,0,1,1-45-45,45,45,0,0,1,45,45"/><path class="cls-2" d="M50.47,47.77v5.09H67.06a3.34,3.34,0,0,1,3.33,3.34v8.86H85V47.77Z"/><rect class="cls-2" x="48.31" y="38.8" width="38.83" height="7.55"/><path class="cls-2" d="M40.38,54.35H33.75a1.85,1.85,0,0,0-1.85,1.85V69.63h8.47Z"/><path class="cls-2" d="M31.91,72V78.4a1.85,1.85,0,0,0,1.85,1.85h6.62V72Z"/><path class="cls-2" d="M42.72,80.25H67.06A1.86,1.86,0,0,0,68.9,78.4V72H42.72Z"/><path class="cls-2" d="M67.06,54.35H42.72V69.63H68.9V56.2A1.86,1.86,0,0,0,67.06,54.35Z"/></svg>