<svg id="Camada_1" data-name="Camada 1" xmlns="http://www.w3.org/2000/svg" viewBox="0 0 119.06 119.06"><defs><style>.cls-1{fill:#d0d0d1;}.cls-2{fill:#fff;}</style></defs><title>icone_app</title><path class="cls-1" d="M104.55,59.53a45,45,0,1,1-45-45,45,45,0,0,1,45,45"/><path class="cls-2" d="M61.64,65.78a3.46,3.46,0,0,1-4.92.07L51.84,61l-11,11H78.11L66.28,60.94Z"/><polygon class="cls-2" points="40.08 48.55 40.08 69.41 50.27 59.14 40.08 48.55"/><path class="cls-2" d="M60.57,63.29,77.35,47H42L57.49,63.29a2.1,2.1,0,0,0,1.16.62l.12,0L59,64l.26,0,.12,0A2.1,2.1,0,0,0,60.57,63.29Z"/><polygon class="cls-2" points="68 59.14 78.97 69.49 78.97 69.41 78.97 54.28 78.97 48.55 68 59.14"/></svg>