<svg id="Camada_1" data-name="Camada 1" xmlns="http://www.w3.org/2000/svg" viewBox="0 0 119.06 119.06"><defs><style>.cls-1{font-size:11.32px;fill:#8d8d91;font-family:TrebuchetMS, Trebuchet MS;letter-spacing:0.01em;}.cls-2{fill:none;stroke:#8d8d91;stroke-linecap:round;stroke-linejoin:round;stroke-width:0.75px;}</style></defs><title>icone_app</title><text class="cls-1" transform="translate(106.57 42.33) scale(0.98 1)">A</text><text class="cls-1" transform="translate(76.68 90.07) scale(0.98 1)">C</text><text class="cls-1" transform="translate(19.4 99.19) scale(0.98 1)">L</text><polygon class="cls-2" points="45.3 88.45 8.27 77.32 8.27 40.29 45.3 51.42 45.3 88.45"/><polygon class="cls-2" points="45.3 88.45 98.17 60.84 98.17 23.81 45.3 51.42 45.3 88.45"/><polygon class="cls-2" points="8.27 40.29 62.74 16.89 98.17 23.81 45.3 51.42 8.27 40.29"/><line class="cls-2" x1="48.96" y1="92.89" x2="101.17" y2="65.25"/><line class="cls-2" x1="50.17" y1="95.18" x2="47.75" y2="90.6"/><line class="cls-2" x1="102.38" y1="67.53" x2="99.96" y2="62.96"/><line class="cls-2" x1="43.22" y1="93.87" x2="6.56" y2="82.59"/><line class="cls-2" x1="43.99" y1="91.4" x2="42.46" y2="96.35"/><line class="cls-2" x1="7.32" y1="80.12" x2="5.8" y2="85.07"/><line class="cls-2" x1="103.56" y1="23.81" x2="103.51" y2="60.84"/><line class="cls-2" x1="100.97" y1="23.81" x2="106.15" y2="23.82"/><line class="cls-2" x1="100.92" y1="60.84" x2="106.1" y2="60.84"/></svg>