<?xml version="1.0" encoding="iso-8859-1"?>
<!-- Generator: Adobe Illustrator 19.0.0, SVG Export Plug-In . SVG Version: 6.00 Build 0)  -->
<svg version="1.1" id="Capa_1" xmlns="http://www.w3.org/2000/svg" xmlns:xlink="http://www.w3.org/1999/xlink" x="0px" y="0px"
	 viewBox="0 0 512.005 512.005" style="enable-background:new 0 0 512.005 512.005;" xml:space="preserve">
<path style="fill:#64B5F6;" d="M501.333,0.002H106.667C100.776,0.002,96,4.778,96,10.669v426.667
	c0,5.891,4.776,10.667,10.667,10.667H416c5.891,0,10.667-4.776,10.667-10.667v-74.667h74.667c5.891,0,10.667-4.776,10.667-10.667
	V10.669C512,4.778,507.224,0.002,501.333,0.002z"/>
<g>
	<path style="fill:#2196F3;" d="M511.189,347.928c-1.649-3.989-5.539-6.591-9.856-6.592H416c-5.891,0-10.667,4.776-10.667,10.667
		v85.333c0.001,4.316,2.603,8.207,6.592,9.856c1.291,0.538,2.676,0.813,4.075,0.811c2.831,0.005,5.548-1.115,7.552-3.115
		l85.333-85.333C511.934,356.501,512.843,351.913,511.189,347.928z"/>
	<path style="fill:#2196F3;" d="M202.667,64.002h-192C4.776,64.002,0,68.778,0,74.669v362.667
		c0,41.856,46.933,74.667,106.667,74.667s106.667-32.811,106.667-74.667V74.669C213.333,68.778,208.558,64.002,202.667,64.002z"/>
</g>
<path style="fill:#CFD8DC;" d="M106.667,0.002C46.933,0.002,0,32.813,0,74.669s46.933,74.667,106.667,74.667
	s106.667-32.811,106.667-74.667S166.4,0.002,106.667,0.002z"/>
<path style="fill:#607D8B;" d="M106.667,42.669c-23.915,0-42.667,14.059-42.667,32s18.752,32,42.667,32s42.667-14.059,42.667-32
	S130.581,42.669,106.667,42.669z"/>
<g>
</g>
<g>
</g>
<g>
</g>
<g>
</g>
<g>
</g>
<g>
</g>
<g>
</g>
<g>
</g>
<g>
</g>
<g>
</g>
<g>
</g>
<g>
</g>
<g>
</g>
<g>
</g>
<g>
</g>
</svg>
